<svg width="20" height="20" viewBox="0 0 20 20" fill="none" xmlns="http://www.w3.org/2000/svg">
<rect width="20" height="20" fill="#D9D9D9"/>
<path d="M7.40106 13.48H12.4411L12.8251 11.432H13.7051V15H6.10506V13.944C6.10506 13.3787 6.24373 12.8667 6.52106 12.408C6.80906 11.9493 7.17173 11.5173 7.60906 11.112C8.05706 10.696 8.5264 10.296 9.01706 9.912C9.5184 9.528 9.98773 9.13867 10.4251 8.744C10.8731 8.34933 11.2357 7.928 11.5131 7.48C11.8011 7.032 11.9451 6.54133 11.9451 6.008C11.9451 5.41067 11.7477 4.95733 11.3531 4.648C10.9584 4.328 10.3877 4.168 9.64106 4.168C8.9904 4.168 8.4784 4.296 8.10506 4.552C7.73173 4.808 7.4864 5.19733 7.36906 5.72C7.7104 5.72 7.97173 5.80533 8.15306 5.976C8.3344 6.14667 8.42506 6.38667 8.42506 6.696C8.42506 6.99467 8.3344 7.23467 8.15306 7.416C7.97173 7.58667 7.71573 7.672 7.38506 7.672C7.0224 7.672 6.7504 7.56533 6.56906 7.352C6.3984 7.128 6.31306 6.792 6.31306 6.344C6.31306 5.736 6.4624 5.208 6.76106 4.76C7.0704 4.30133 7.49706 3.944 8.04106 3.688C8.59573 3.432 9.23573 3.304 9.96106 3.304C10.6864 3.304 11.3157 3.432 11.8491 3.688C12.3931 3.944 12.8144 4.30667 13.1131 4.776C13.4117 5.23467 13.5611 5.77867 13.5611 6.408C13.5611 7.05867 13.4117 7.63467 13.1131 8.136C12.8144 8.63733 12.4304 9.08533 11.9611 9.48C11.5024 9.864 11.0064 10.2213 10.4731 10.552C9.9504 10.872 9.4544 11.1867 8.98506 11.496C8.5264 11.7947 8.14773 12.104 7.84906 12.424C7.5504 12.744 7.40106 13.096 7.40106 13.48Z" fill="#408416"/>
</svg>
