<svg width="20" height="20" viewBox="0 0 20 20" fill="none" xmlns="http://www.w3.org/2000/svg">
<rect width="20" height="20" fill="#D9D9D9"/>
<path d="M13.5354 6.312C13.5354 7.016 13.3327 7.608 12.9274 8.088C12.522 8.568 11.9674 8.86667 11.2634 8.984V9.048C12.0847 9.21867 12.698 9.53867 13.1034 10.008C13.5087 10.4773 13.7114 11.1013 13.7114 11.88C13.7114 12.5307 13.546 13.1013 13.2154 13.592C12.8954 14.0827 12.442 14.4667 11.8554 14.744C11.2687 15.0213 10.586 15.16 9.80738 15.16C9.10338 15.16 8.47938 15.032 7.93538 14.776C7.39138 14.52 6.96471 14.168 6.65538 13.72C6.35671 13.2613 6.20738 12.7387 6.20738 12.152C6.20738 11.6933 6.29804 11.352 6.47938 11.128C6.67138 10.904 6.95404 10.792 7.32738 10.792C7.63671 10.792 7.87671 10.8827 8.04738 11.064C8.22871 11.2347 8.31938 11.4747 8.31938 11.784C8.31938 12.072 8.22338 12.3067 8.03138 12.488C7.83938 12.6587 7.58338 12.744 7.26338 12.744C7.35938 13.256 7.60471 13.6453 7.99938 13.912C8.39404 14.168 8.93271 14.296 9.61538 14.296C10.4047 14.296 10.9967 14.1093 11.3914 13.736C11.786 13.352 11.9834 12.8027 11.9834 12.088C11.9834 11.2667 11.722 10.616 11.1994 10.136C10.6874 9.656 9.97804 9.416 9.07138 9.416V8.648C9.92471 8.648 10.6127 8.41333 11.1354 7.944C11.6687 7.47467 11.9354 6.856 11.9354 6.088C11.9354 5.46933 11.7487 4.99467 11.3754 4.664C11.0127 4.33333 10.4847 4.168 9.79138 4.168C8.43671 4.168 7.66871 4.632 7.48738 5.56C7.81804 5.56 8.07404 5.64533 8.25538 5.816C8.44738 5.976 8.54338 6.21067 8.54338 6.52C8.54338 6.81867 8.44738 7.05867 8.25538 7.24C8.07404 7.42133 7.82871 7.512 7.51938 7.512C7.15671 7.512 6.86871 7.384 6.65538 7.128C6.44204 6.872 6.33538 6.52533 6.33538 6.088C6.33538 5.53333 6.49004 5.048 6.79938 4.632C7.10871 4.216 7.53538 3.89067 8.07938 3.656C8.62338 3.42133 9.25271 3.304 9.96738 3.304C10.6714 3.304 11.29 3.432 11.8234 3.688C12.3567 3.93333 12.7727 4.28533 13.0714 4.744C13.3807 5.192 13.5354 5.71467 13.5354 6.312Z" fill="#FF0000"/>
</svg>
