<svg width="20" height="20" viewBox="0 0 20 20" fill="none" xmlns="http://www.w3.org/2000/svg">
<rect width="20" height="20" fill="#D9D9D9"/>
<path d="M12.6576 5H8.25756L7.72956 8.488C8.0389 8.25333 8.3749 8.07733 8.73756 7.96C9.1109 7.84267 9.5269 7.784 9.98556 7.784C10.7322 7.784 11.3776 7.93333 11.9216 8.232C12.4762 8.52 12.9082 8.93067 13.2176 9.464C13.5269 9.99733 13.6816 10.632 13.6816 11.368C13.6816 12.1253 13.5162 12.792 13.1856 13.368C12.8549 13.9333 12.3909 14.376 11.7936 14.696C11.2069 15.0053 10.5189 15.16 9.72956 15.16C9.0469 15.16 8.44956 15.0427 7.93756 14.808C7.42556 14.5627 7.02556 14.2427 6.73756 13.848C6.46023 13.4427 6.32156 13.0107 6.32156 12.552C6.32156 12.072 6.4389 11.6987 6.67356 11.432C6.90823 11.1547 7.18556 11.016 7.50556 11.016C7.82556 11.016 8.06556 11.112 8.22556 11.304C8.38556 11.496 8.46556 11.72 8.46556 11.976C8.46556 12.232 8.36956 12.4613 8.17756 12.664C7.99623 12.8667 7.7349 12.968 7.39356 12.968C7.4789 13.3627 7.7349 13.688 8.16156 13.944C8.58823 14.2 9.1109 14.328 9.72956 14.328C10.5829 14.328 11.1642 14.0667 11.4736 13.544C11.7936 13.0107 11.9536 12.312 11.9536 11.448C11.9536 10.5947 11.7989 9.91733 11.4896 9.416C11.1802 8.91467 10.6042 8.664 9.76156 8.664C9.3349 8.664 8.9189 8.73333 8.51356 8.872C8.10823 9 7.7989 9.19733 7.58556 9.464L6.81756 9.144L7.72956 3.48H12.3376L12.6256 2.968H13.2976L12.6576 5Z" fill="#5E1212"/>
</svg>
