<svg width="20" height="20" viewBox="0 0 20 20" fill="none" xmlns="http://www.w3.org/2000/svg">
<rect width="20" height="20" fill="#D9D9D9"/>
<path d="M7.64369 9.384H7.70769C8.00635 8.98933 8.40635 8.68 8.90769 8.456C9.40902 8.232 9.95302 8.12 10.5397 8.12C11.2224 8.12 11.8144 8.26933 12.3157 8.568C12.8277 8.856 13.2277 9.26667 13.5157 9.8C13.8037 10.3227 13.9477 10.936 13.9477 11.64C13.9477 12.728 13.601 13.5867 12.9077 14.216C12.225 14.8453 11.297 15.16 10.1237 15.16C8.76902 15.16 7.76102 14.7013 7.09969 13.784C6.44902 12.8667 6.12369 11.4587 6.12369 9.56C6.12369 7.52267 6.47569 5.97067 7.17969 4.904C7.88369 3.83733 8.90235 3.304 10.2357 3.304C10.8864 3.304 11.457 3.416 11.9477 3.64C12.449 3.864 12.8384 4.17867 13.1157 4.584C13.393 4.98933 13.5317 5.45867 13.5317 5.992C13.5317 6.42933 13.4357 6.76533 13.2437 7C13.0624 7.224 12.7957 7.336 12.4437 7.336C12.1344 7.336 11.8837 7.25067 11.6917 7.08C11.5104 6.89867 11.4197 6.65867 11.4197 6.36C11.4197 6.06133 11.5104 5.82667 11.6917 5.656C11.8837 5.47467 12.145 5.384 12.4757 5.384C12.401 4.98933 12.1824 4.69067 11.8197 4.488C11.457 4.28533 10.977 4.184 10.3797 4.184C9.40902 4.184 8.70502 4.536 8.26769 5.24C7.83035 5.944 7.61169 7.07467 7.61169 8.632C7.61169 8.78133 7.61169 8.90933 7.61169 9.016C7.62235 9.12267 7.63302 9.24533 7.64369 9.384ZM12.2357 11.64C12.2357 9.90133 11.5264 9.032 10.1077 9.032C9.40369 9.032 8.87035 9.25067 8.50769 9.688C8.15569 10.1253 7.97969 10.776 7.97969 11.64C7.97969 12.5147 8.15569 13.176 8.50769 13.624C8.87035 14.0613 9.40369 14.28 10.1077 14.28C11.5264 14.28 12.2357 13.4 12.2357 11.64Z" fill="#3DADA7"/>
</svg>
