<svg width="20" height="20" viewBox="0 0 20 20" fill="none" xmlns="http://www.w3.org/2000/svg">
<rect width="20" height="20" fill="#D9D9D9"/>
<path d="M10.0904 14.136C10.0904 14.4453 10.0264 14.696 9.89844 14.888C9.77044 15.0693 9.56244 15.16 9.27444 15.16C8.97577 15.16 8.76244 15.0693 8.63444 14.888C8.50644 14.7067 8.44244 14.4507 8.44244 14.12C8.44244 13.672 8.51177 13.1493 8.65044 12.552C8.7891 11.9547 8.9811 11.32 9.22644 10.648C9.47177 9.976 9.75977 9.304 10.0904 8.632C10.4318 7.94933 10.7944 7.29867 11.1784 6.68C11.5731 6.05067 11.9784 5.49067 12.3944 5H7.67444L7.37044 6.872H6.53844V3.48H13.8824V4.456C13.3491 5.08533 12.8531 5.79467 12.3944 6.584C11.9358 7.36267 11.5304 8.184 11.1784 9.048C10.8371 9.912 10.5704 10.7813 10.3784 11.656C10.1864 12.52 10.0904 13.3467 10.0904 14.136Z" fill="#0C1111"/>
</svg>
