<svg width="20" height="20" viewBox="0 0 20 20" fill="none" xmlns="http://www.w3.org/2000/svg">
<rect width="20" height="20" fill="#D9D9D9"/>
<path d="M13.1979 5.864C13.1979 6.46133 13.0432 7.016 12.7339 7.528C12.4352 8.02933 12.0085 8.44533 11.4539 8.776C12.2432 9.20267 12.8192 9.66133 13.1819 10.152C13.5445 10.632 13.7259 11.192 13.7259 11.832C13.7259 12.4933 13.5552 13.0747 13.2139 13.576C12.8832 14.0773 12.4192 14.4667 11.8219 14.744C11.2245 15.0213 10.5259 15.16 9.72588 15.16C8.63788 15.16 7.78988 14.8933 7.18188 14.36C6.57388 13.8267 6.26988 13.0907 6.26988 12.152C6.26988 11.4693 6.44054 10.872 6.78188 10.36C7.13388 9.848 7.68321 9.37867 8.42988 8.952C7.84321 8.52533 7.42188 8.10933 7.16588 7.704C6.92054 7.29867 6.79788 6.81867 6.79788 6.264C6.79788 5.34667 7.09121 4.62667 7.67788 4.104C8.27521 3.57067 9.09121 3.304 10.1259 3.304C11.0859 3.304 11.8379 3.53333 12.3819 3.992C12.9259 4.44 13.1979 5.064 13.1979 5.864ZM9.08588 9.368C8.49921 9.70933 8.06721 10.104 7.78988 10.552C7.52321 11 7.38988 11.528 7.38988 12.136C7.38988 12.8613 7.58188 13.4053 7.96588 13.768C8.36054 14.12 8.95254 14.296 9.74188 14.296C10.5312 14.296 11.1285 14.1307 11.5339 13.8C11.9499 13.4693 12.1579 12.9787 12.1579 12.328C12.1579 11.9867 12.0672 11.672 11.8859 11.384C11.7045 11.096 11.3899 10.792 10.9419 10.472C10.4939 10.152 9.87521 9.784 9.08588 9.368ZM10.7659 8.36C11.2245 8.136 11.5819 7.80533 11.8379 7.368C12.1045 6.93067 12.2379 6.45067 12.2379 5.928C12.2379 5.34133 12.0619 4.904 11.7099 4.616C11.3685 4.31733 10.8512 4.168 10.1579 4.168C9.49654 4.168 8.99521 4.30667 8.65388 4.584C8.32321 4.85067 8.15788 5.26133 8.15788 5.816C8.15788 6.31733 8.34988 6.76 8.73388 7.144C9.12854 7.51733 9.80588 7.92267 10.7659 8.36Z" fill="#737373"/>
</svg>
