<svg width="20" height="20" viewBox="0 0 20 20" fill="none" xmlns="http://www.w3.org/2000/svg">
<g clip-path="url(#clip0_166_2)">
<rect width="20" height="20" fill="#D9D9D9"/>
<path d="M19.1663 10.833V9.16634H16.608C16.4572 7.98165 15.991 6.8592 15.258 5.91634L17.083 4.10801L15.8913 2.91634L14.083 4.74134C13.1401 4.00837 12.0177 3.54212 10.833 3.39134V0.833008H9.16634V3.39134C7.98301 3.54134 6.85801 4.00801 5.91634 4.74134L4.10801 2.91634L2.91634 4.10801L4.74134 5.91634C4.00837 6.8592 3.54212 7.98165 3.39134 9.16634H0.833008V10.833H3.39134C3.54134 12.0163 4.00801 13.1413 4.74134 14.083L2.91634 15.8913L4.10801 17.083L5.91634 15.258C6.85801 15.9913 7.98301 16.458 9.16634 16.608V19.1663H10.833V16.608C12.0163 16.458 13.1413 15.9913 14.083 15.258L15.8913 17.083L17.083 15.8913L15.258 14.083C15.991 13.1401 16.4572 12.0177 16.608 10.833H19.1663ZM9.99967 6.66634C9.11562 6.66634 8.26777 7.01753 7.64265 7.64265C7.01753 8.26777 6.66634 9.11562 6.66634 9.99967H4.99967C4.99967 8.67359 5.52646 7.40182 6.46414 6.46414C7.40182 5.52646 8.67359 4.99967 9.99967 4.99967V6.66634Z" fill="black"/>
</g>
<defs>
<clipPath id="clip0_166_2">
<rect width="20" height="20" fill="white"/>
</clipPath>
</defs>
</svg>
